<?xml version="1.0" encoding="utf-8"?>
<svg xmlns="http://www.w3.org/2000/svg" viewBox="514.673 47.0189 352 50.0001" width="352px" height="50.0001px"><g id="object-4"><rect width="352" height="50" rx="10.776" fill="#FFDD00" x="514.673" y="47.019" style="stroke-width: 1;" id="object-0"/><g xmlns="http://www.w3.org/2000/svg" transform="matrix(1, 0, 0, 1, 530.897583, 60.170414)" id="object-1"><path d="M14.8456 5.58283L14.8291 5.57315L14.791 5.56152C14.8063 5.57446 14.8255 5.58196 14.8456 5.58283V5.58283Z" fill="#0D0C22"/><path d="M15.0848 7.29736L15.0664 7.30253L15.0848 7.29736Z" fill="#0D0C22"/><path d="M14.8527 5.58024C14.8503 5.57995 14.848 5.5794 14.8458 5.57861C14.8457 5.58013 14.8457 5.58166 14.8458 5.58318C14.8483 5.58285 14.8507 5.58184 14.8527 5.58024V5.58024Z" fill="#0D0C22"/><path d="M14.8457 5.5831H14.8482V5.58154L14.8457 5.5831Z" fill="#0D0C22"/><path d="M15.0703 7.29435L15.0981 7.27852L15.1084 7.27271L15.1178 7.2627C15.1002 7.27029 15.0841 7.28102 15.0703 7.29435V7.29435Z" fill="#0D0C22"/><path d="M14.8932 5.62033L14.8661 5.59449L14.8477 5.58447C14.8576 5.60193 14.8739 5.61481 14.8932 5.62033V5.62033Z" fill="#0D0C22"/><path d="M8.06888 22.2583C8.04721 22.2677 8.02823 22.2823 8.01367 22.3009L8.03079 22.2899C8.04241 22.2793 8.05887 22.2667 8.06888 22.2583Z" fill="#0D0C22"/><path d="M12.031 21.4787C12.031 21.4542 12.019 21.4587 12.0219 21.5459C12.0219 21.5388 12.0248 21.5316 12.0261 21.5249C12.0278 21.5094 12.029 21.4942 12.031 21.4787Z" fill="#0D0C22"/><path d="M11.6216 22.2583C11.5999 22.2677 11.581 22.2823 11.5664 22.3009L11.5835 22.2899C11.5951 22.2793 11.6116 22.2667 11.6216 22.2583Z" fill="#0D0C22"/><path d="M5.27882 22.4436C5.26237 22.4293 5.24224 22.4199 5.2207 22.4165C5.23814 22.4249 5.25557 22.4333 5.2672 22.4398L5.27882 22.4436Z" fill="#0D0C22"/><path d="M4.64988 21.8423C4.64731 21.8169 4.6395 21.7923 4.62695 21.77C4.63584 21.7932 4.64328 21.8169 4.64923 21.8411L4.64988 21.8423Z" fill="#0D0C22"/><path d="M1.47656 7.24561L1.49143 7.2595L1.50113 7.26532C1.49366 7.2579 1.48543 7.25129 1.47656 7.24561V7.24561Z" fill="#0D0C22"/><path d="M16.5048 6.41468L16.3727 5.74859C16.2542 5.15095 15.9853 4.58625 15.3718 4.37025C15.1752 4.30115 14.9521 4.27145 14.8013 4.12841C14.6505 3.98538 14.606 3.76324 14.5711 3.55725C14.5065 3.17917 14.4458 2.80076 14.3796 2.42332C14.3225 2.09883 14.2773 1.73431 14.1284 1.43662C13.9347 1.0369 13.5327 0.803144 13.133 0.648488C12.9282 0.572029 12.7192 0.507349 12.507 0.454764C11.5083 0.1913 10.4583 0.0944382 9.43095 0.0392269C8.1978 -0.0288182 6.96136 -0.00831713 5.73115 0.100573C4.81548 0.183874 3.85106 0.284611 2.98092 0.601349C2.66289 0.71726 2.33517 0.856418 2.09334 1.10212C1.79662 1.40401 1.69976 1.87089 1.91641 2.24736C2.07042 2.51469 2.3313 2.70357 2.608 2.82853C2.96841 2.98953 3.34482 3.11204 3.73095 3.19402C4.80612 3.43165 5.91971 3.52496 7.01812 3.56468C8.23556 3.61381 9.45495 3.57399 10.6666 3.44554C10.9662 3.4126 11.2653 3.37311 11.5639 3.32704C11.9155 3.27312 12.1411 2.81335 12.0375 2.49306C11.9135 2.11013 11.5803 1.96161 11.2035 2.01941C11.148 2.02812 11.0928 2.0362 11.0372 2.04427L10.9972 2.05008C10.8696 2.06622 10.7419 2.08129 10.6143 2.09528C10.3506 2.1237 10.0863 2.14694 9.82131 2.16502C9.22787 2.20635 8.63281 2.2254 8.03808 2.22637C7.45368 2.22637 6.86896 2.2099 6.28585 2.17148C6.0198 2.15404 5.7544 2.13187 5.48964 2.10497C5.36921 2.09238 5.2491 2.07914 5.12899 2.06429L5.01469 2.04976L4.98983 2.04621L4.87134 2.02909C4.62919 1.99261 4.38703 1.95064 4.14746 1.89994C4.12328 1.89458 4.10166 1.88113 4.08616 1.86182C4.07066 1.8425 4.06222 1.81848 4.06222 1.79372C4.06222 1.76896 4.07066 1.74493 4.08616 1.72562C4.10166 1.70631 4.12328 1.69286 4.14746 1.68749H4.15198C4.35959 1.64326 4.56881 1.60548 4.77867 1.57255C4.84863 1.56157 4.9188 1.55081 4.98919 1.54026H4.99112C5.12253 1.53155 5.25459 1.50798 5.38535 1.49248C6.52305 1.37414 7.66751 1.33379 8.81071 1.37172C9.36573 1.38787 9.92043 1.42048 10.4729 1.47666C10.5917 1.48893 10.7099 1.50184 10.828 1.51637C10.8732 1.52186 10.9188 1.52832 10.9643 1.53381L11.056 1.54704C11.3233 1.58686 11.5892 1.63519 11.8538 1.69201C12.2458 1.77725 12.7491 1.80502 12.9235 2.23444C12.979 2.37069 13.0042 2.52212 13.0349 2.66515L13.0739 2.84758C13.0749 2.85085 13.0757 2.85419 13.0762 2.85758C13.1685 3.28808 13.261 3.71858 13.3535 4.14908C13.3603 4.18088 13.3605 4.21374 13.354 4.24561C13.3475 4.27747 13.3346 4.30766 13.3159 4.33429C13.2972 4.36092 13.2733 4.38342 13.2455 4.40038C13.2178 4.41734 13.1869 4.42841 13.1546 4.43288H13.1521L13.0956 4.44063L13.0397 4.44806C12.8628 4.47109 12.6856 4.49261 12.5083 4.51263C12.1589 4.55245 11.809 4.58689 11.4586 4.61595C10.7623 4.67385 10.0645 4.71185 9.36541 4.72993C9.00917 4.7394 8.65304 4.74381 8.29702 4.74316C6.87993 4.74205 5.46407 4.65969 4.05641 4.49649C3.90401 4.47841 3.75162 4.45904 3.59922 4.43934C3.71739 4.45452 3.51334 4.42772 3.47201 4.42191C3.37515 4.40834 3.27828 4.39425 3.18142 4.37961C2.85629 4.33086 2.53309 4.2708 2.20861 4.21817C1.81631 4.1536 1.44114 4.18589 1.0863 4.37961C0.795031 4.539 0.55929 4.78341 0.410525 5.08024C0.257483 5.39666 0.211959 5.74116 0.143509 6.08115C0.0750604 6.42114 -0.0314881 6.78695 0.00887101 7.13598C0.0957239 7.88924 0.622331 8.50141 1.37979 8.6383C2.09237 8.76745 2.80883 8.87206 3.52722 8.96118C6.34923 9.3068 9.20021 9.34815 12.031 9.08451C12.2616 9.06299 12.4918 9.03953 12.7217 9.01413C12.7935 9.00624 12.8661 9.01451 12.9343 9.03834C13.0025 9.06217 13.0645 9.10095 13.1158 9.15184C13.167 9.20273 13.2063 9.26445 13.2306 9.33246C13.2549 9.40048 13.2637 9.47307 13.2564 9.54493L13.1847 10.2417C13.0402 11.6496 12.8958 13.0575 12.7514 14.4652C12.6007 15.9435 12.4491 17.4217 12.2965 18.8999C12.2534 19.3161 12.2104 19.7323 12.1673 20.1484C12.126 20.5581 12.1202 20.9808 12.0423 21.3857C11.9197 22.0224 11.4886 22.4134 10.8597 22.5564C10.2834 22.6875 9.69481 22.7564 9.10388 22.7617C8.44877 22.7653 7.79399 22.7362 7.13888 22.7398C6.43953 22.7437 5.58295 22.6791 5.04311 22.1586C4.56881 21.7014 4.50326 20.9856 4.43869 20.3667C4.35259 19.5472 4.26724 18.7279 4.18265 17.9086L3.70803 13.3532L3.40097 10.4057C3.39581 10.357 3.39064 10.3089 3.3858 10.2598C3.34899 9.90816 3.10006 9.56398 2.70777 9.58174C2.37198 9.59659 1.99034 9.88201 2.02973 10.2598L2.25736 12.445L2.72811 16.9652C2.86221 18.2492 2.99599 19.5333 3.12944 20.8177C3.15527 21.0638 3.17948 21.3104 3.2066 21.5565C3.35416 22.9009 4.38089 23.6254 5.65237 23.8295C6.39498 23.9489 7.15567 23.9735 7.90925 23.9857C8.87529 24.0012 9.85101 24.0384 10.8012 23.8634C12.2093 23.6051 13.2657 22.6649 13.4165 21.2065C13.4595 20.7854 13.5026 20.3643 13.5456 19.9431C13.6888 18.55 13.8317 17.1568 13.9744 15.7635L14.4413 11.211L14.6554 9.12455C14.666 9.0211 14.7097 8.92382 14.78 8.84713C14.8502 8.77043 14.9433 8.71838 15.0454 8.69868C15.448 8.62022 15.8329 8.48623 16.1193 8.17982C16.5752 7.69196 16.6659 7.0559 16.5048 6.41468ZM1.35913 6.86476C1.36526 6.86186 1.35396 6.91448 1.34912 6.93902C1.34815 6.90189 1.35009 6.86896 1.35913 6.86476ZM1.39819 7.16697C1.40142 7.16471 1.41111 7.17763 1.42112 7.19312C1.40594 7.17892 1.39626 7.16826 1.39787 7.16697H1.39819ZM1.43662 7.21766C1.4505 7.24123 1.45793 7.25608 1.43662 7.21766V7.21766ZM1.51378 7.2803H1.51572C1.51572 7.28256 1.51927 7.28482 1.52056 7.28708C1.51842 7.2846 1.51604 7.28232 1.51346 7.2803H1.51378ZM15.0267 7.18667C14.882 7.32421 14.6641 7.38814 14.4487 7.4201C12.0336 7.77849 9.58335 7.95995 7.14178 7.87988C5.39439 7.82014 3.66541 7.6261 1.93545 7.38168C1.76595 7.35779 1.58223 7.32679 1.46567 7.20184C1.24612 6.96614 1.35396 6.49152 1.41111 6.20675C1.46341 5.94587 1.56351 5.59813 1.87379 5.561C2.3581 5.50418 2.92054 5.70855 3.39968 5.7812C3.97655 5.86924 4.55557 5.93973 5.13674 5.99268C7.61705 6.21869 10.139 6.1835 12.6083 5.85288C13.0584 5.79239 13.5069 5.72212 13.9538 5.64204C14.3519 5.57069 14.7932 5.4367 15.0338 5.849C15.1988 6.1299 15.2207 6.50573 15.1952 6.82311C15.1873 6.9614 15.1269 7.09145 15.0263 7.18667H15.0267Z" fill="#000000"/><path d="M8.84348 11.1214C7.98141 11.4905 7.0031 11.9089 5.73518 11.9089C5.20476 11.9079 4.67693 11.8351 4.16602 11.6926L5.04294 20.6959C5.07398 21.0722 5.24541 21.4231 5.52319 21.6789C5.80096 21.9346 6.16477 22.0766 6.54236 22.0765C6.54236 22.0765 7.78574 22.1411 8.20064 22.1411C8.64717 22.1411 9.98612 22.0765 9.98612 22.0765C10.3637 22.0765 10.7274 21.9345 11.0051 21.6788C11.2828 21.423 11.4542 21.0722 11.4852 20.6959L12.4245 10.7469C12.0047 10.6035 11.5811 10.5083 11.1036 10.5083C10.2777 10.508 9.61224 10.7924 8.84348 11.1214Z" fill="#ffffff"/></g><text x="566.505" y="78.415" fill="#000000" style="font-family: &quot;Bree Serif&quot;, cursive; font-size: 18px; font-weight: bold; white-space: pre; stroke-width: 1;" id="object-2">Donate with Buy Me a Coffee</text><g transform="matrix(1, 0, 0, 1, 614.672974, 47.01889)" id="object-3"><path opacity="0.1" d="M200.834 0H241.303C247.119 0 251.834 4.71479 251.834 10.5308V39.4692C251.834 45.2852 247.119 50 241.303 50H200.834V0Z" fill="black"/><path fill-rule="evenodd" clip-rule="evenodd" d="M 226.294 32.238 C 226.214 32.238 225.974 32.155 225.974 32.155 C 224.213 31.244 220.052 28.675 218.612 24.615 C 218.372 23.869 217.812 20.803 219.572 18.897 C 220.612 17.737 221.573 17.572 222.213 17.572 C 223.733 17.572 225.334 18.483 226.294 19.809 C 227.254 18.4 228.695 17.572 230.375 17.572 C 231.015 17.572 231.976 17.737 233.096 18.897 C 234.856 20.803 234.296 23.952 234.056 24.615 C 232.616 28.758 228.375 31.244 226.694 32.155 C 226.534 32.238 226.374 32.238 226.294 32.238 Z" fill="white"/></g></g></svg>